<svg width="294" height="126" viewBox="0 0 294 126" fill="none" xmlns="http://www.w3.org/2000/svg">
<g clip-path="url(#clip0_1_2)">
<path d="M0 125.816V0H15.004V112.816H160.598H293.471V125.816H0Z" fill="black"/>
<path d="M37 98.816V30.464H53V98.816H37ZM45.064 19.2C42.0773 19.2 39.6027 18.2613 37.64 16.384C35.7627 14.5067 34.824 12.2453 34.824 9.6C34.824 6.86933 35.7627 4.608 37.64 2.81599C39.6027 0.938665 42.0773 0 45.064 0C48.0507 0 50.4827 0.895999 52.36 2.688C54.3227 4.39467 55.304 6.57067 55.304 9.216C55.304 12.032 54.3653 14.4213 52.488 16.384C50.6107 18.2613 48.136 19.2 45.064 19.2Z" fill="black"/>
<path d="M112.784 29.696C118.245 29.696 123.109 30.7627 127.376 32.896C131.728 35.0293 135.141 38.3147 137.616 42.752C140.091 47.104 141.328 52.736 141.328 59.648V98.816H125.328V61.696C125.328 55.6373 123.877 51.1147 120.976 48.128C118.16 45.1413 114.192 43.648 109.072 43.648C105.317 43.648 101.989 44.416 99.088 45.952C96.1867 47.488 93.9253 49.792 92.304 52.864C90.768 55.8507 90 59.648 90 64.256V98.816H74V30.464H89.232V48.896L86.544 43.264C88.9333 38.912 92.3893 35.584 96.912 33.28C101.52 30.8907 106.811 29.696 112.784 29.696Z" fill="black"/>
<path d="M193.878 99.712C186.283 99.712 179.627 98.2187 173.91 95.232C168.278 92.16 163.883 87.9787 160.726 82.688C157.654 77.3973 156.118 71.3813 156.118 64.64C156.118 57.8133 157.611 51.7973 160.598 46.592C163.67 41.3013 167.851 37.1627 173.142 34.176C178.518 31.1893 184.619 29.696 191.446 29.696C198.102 29.696 204.033 31.1467 209.238 34.048C214.443 36.9493 218.539 41.0453 221.526 46.336C224.513 51.6267 226.006 57.856 226.006 65.024C226.006 65.7067 225.963 66.4747 225.878 67.328C225.878 68.1813 225.835 68.992 225.75 69.76H168.79V59.136H217.302L211.03 62.464C211.115 58.5387 210.305 55.0827 208.598 52.096C206.891 49.1093 204.545 46.7627 201.558 45.056C198.657 43.3493 195.286 42.496 191.446 42.496C187.521 42.496 184.065 43.3493 181.078 45.056C178.177 46.7627 175.873 49.152 174.166 52.224C172.545 55.2107 171.734 58.752 171.734 62.848V65.408C171.734 69.504 172.673 73.1307 174.55 76.288C176.427 79.4453 179.073 81.8773 182.486 83.584C185.899 85.2907 189.825 86.144 194.262 86.144C198.102 86.144 201.558 85.5467 204.63 84.352C207.702 83.1573 210.433 81.28 212.822 78.72L221.398 88.576C218.326 92.16 214.443 94.9333 209.75 96.896C205.142 98.7733 199.851 99.712 193.878 99.712Z" fill="black"/>
<path d="M262.495 99.712C256.778 99.712 251.274 98.9867 245.983 97.536C240.778 96 236.639 94.1653 233.567 92.032L239.711 79.872C242.783 81.8347 246.452 83.456 250.719 84.736C254.986 86.016 259.252 86.656 263.519 86.656C268.554 86.656 272.18 85.9733 274.399 84.608C276.703 83.2427 277.855 81.408 277.855 79.104C277.855 77.2267 277.087 75.8187 275.551 74.88C274.015 73.856 272.01 73.088 269.535 72.576C267.06 72.064 264.287 71.5947 261.215 71.168C258.228 70.7413 255.199 70.1867 252.127 69.504C249.14 68.736 246.41 67.6693 243.935 66.304C241.46 64.8533 239.455 62.9333 237.919 60.544C236.383 58.1547 235.615 54.9973 235.615 51.072C235.615 46.72 236.852 42.9653 239.327 39.808C241.802 36.5653 245.258 34.0907 249.695 32.384C254.218 30.592 259.551 29.696 265.695 29.696C270.303 29.696 274.954 30.208 279.647 31.232C284.34 32.256 288.223 33.7067 291.295 35.584L285.151 47.744C281.908 45.7813 278.623 44.4587 275.295 43.776C272.052 43.008 268.81 42.624 265.567 42.624C260.703 42.624 257.076 43.3493 254.687 44.8C252.383 46.2507 251.231 48.0853 251.231 50.304C251.231 52.352 251.999 53.888 253.535 54.912C255.071 55.936 257.076 56.7467 259.551 57.344C262.026 57.9413 264.756 58.4533 267.743 58.88C270.815 59.2213 273.844 59.776 276.831 60.544C279.818 61.312 282.548 62.3787 285.023 63.744C287.583 65.024 289.631 66.8587 291.167 69.248C292.703 71.6373 293.471 74.752 293.471 78.592C293.471 82.8587 292.191 86.5707 289.631 89.728C287.156 92.8853 283.615 95.36 279.007 97.152C274.399 98.8587 268.895 99.712 262.495 99.712Z" fill="black"/>
</g>
<defs>
<clipPath id="clip0_1_2">
<rect width="294" height="126" fill="white"/>
</clipPath>
</defs>
</svg>
